<svg xmlns="http://www.w3.org/2000/svg" id="Layer_2" data-name="Layer 2" viewBox="0 0 1764.32 1231.26"><defs><style>      .cls-1 {        fill: #fff;      }      .cls-1, .cls-2 {        stroke-width: 0px;      }      .cls-2 {        fill: #010101;      }    </style></defs><g id="Layer_1-2" data-name="Layer 1"><g><g><path class="cls-2" d="M322.73,318.54c16.5-1.83,30.25-7.08,40.93-15.57-12.19,31.38-21.17,60.56-26.74,86.93-6.58,31.1-9.97,58.49-10.03,81.32-.09,24.27,2.38,43.96,7.55,60.26,6.78,21.34,16.96,35.32,28.46,41.12,16.7,10.93,33.36,16.45,49.62,16.45,1.16,0,2.3-.03,3.46-.09,15.81-.76,29.56-4.58,41.85-11.9,15.05-9.74,22.65-24.85,20.85-41.45-.52-4.7-1.54-9.13-3.07-13.25-3.28-13.25-4.29-29.47-3.12-48.27,2.16,4.43,4.06,9.15,6.89,12.84,8.21,10.68,17.81,18.99,28.37,24.57,10.35,5.52,20.96,8.88,31.65,9.92l14.91,1.43c.93.09,1.86.12,2.79.12,1.28,0,2.55-.09,3.82-.24,5.37-.64,10.99-2.35,16.71-5.04,15.17-7.08,23.4-22.31,21.47-39.65-.98-8.94-4.04-17.92-9.1-26.71-.24-.43-1.11-2.2-1.57-6.35-1.59-14.35-1.1-29.27,1.45-44.38,2.59-15.45,4.5-25.98,5.8-31.59.52-1.53,1.1-3.39,1.51-5.56.2-.7.37-1.37.52-2.11,4.24-19.66,9.36-39.13,15.23-57.87,5.94-18.93,12.38-36.97,19.14-53.6,6.87-16.94,13.71-32.6,20.57-47.01,3.79-7.97,7.43-15.29,10.94-21.98,1.6.06,3.27.15,4.99.31,8.23.73,16.15,2.17,23.53,4.27,5.81,1.65,10.81,3.94,14.84,5.1.31,1.47.73,2.9,1.25,4.33.74,2,2.04,3.56,3.07,5.34-1.75,1.67-3.82,3.29-5.42,4.98-9.07,9.46-16.57,19.08-22.31,28.63-5.37,8.94-9.62,17.28-12.62,24.85-2.29,5.83-3.86,10.38-4.81,13.55-4.33,11.32-6.33,23.35-5.91,36.11.29,6.07,1.27,12.03,2.95,17.92l-.79.52c-5.78,3.75-13.49,11.11-16.53,22.41-2.43,6.59-4.4,15.9-6.18,29.18-2.18,15.84-.21,32.51,5.85,49.45,6.38,18.04,18.62,33.97,36.39,47.4,18.07,13.61,43.85,21.15,79.35,23.11,1.98.09,3.94.12,5.88.12,15.16,0,29.33-2.29,41.91-6.75,13.2-4.4,25.72-12.03,37.22-22.65,13.89-12.82,22.19-31.17,24.62-54.24,2.58-22.74-1.62-42.09-12.52-57.54-7.11-10.07-15.74-18.5-25.7-25.18,3.95-4.24,7.77-9,11.43-14.19,10.53-14.99,18.47-30.98,23.63-47.59,5.54-17.89,7.19-35.41,4.9-52.23-3.17-22.77-16.1-40.45-35.99-49.54-11.75-5.56-23.85-8.21-35.75-8.52.04-2.91.05-5.85-.3-9.09-.69-6.25-2.46-11.98-4.71-17.45,6.9-4.44,13.36-9.78,19.28-16.07,14.44-15.26,20.82-34.86,18.13-58.73-2.78-15.51-7.75-27.38-15.25-36.32-7.36-8.76-15.83-14.96-23.63-17.83-10.45-4.55-22.08-5.65-33.71-3.42-8.61,1.1-15.92,3.3-22.47,6.75-4.15,2.26-7.65,4.58-10.61,7.11-2.87,1.89-5.43,4.12-7.39,6.56-5.8,7.23-8.39,16.57-7.48,24.39.34,7.08-.7,14.74-3.08,22.71-2.16,7.18-3.76,12.24-5.11,16.34-2.06-.14-4-.73-6.08-.8-4.69-10.65-11.16-17.61-16.56-21.95-8.78-7.02-18.5-11.81-28.89-14.26-9.36-2.2-17.58-2.87-25.46-2.01l-3.79.43c-.32.03-.66.06-.99.12-23.61,2.72-40.55,10.2-51.72,22.77-5.16,5.77-10.41,13.03-15.87,22.01-.51.01-.98.02-1.47.03-1.59-5.8-3.38-11.53-5.74-17.09-5.91-12.85-14.8-25.31-26.48-37.03-12.99-13-29.11-22.07-47.92-27.01-18.7-4.95-39.62-4.4-62.13,1.59-22.24,5.92-45.05,19.41-69.29,40.84-22.99,19.6-42.11,40.54-56.81,62.21-14.74,21.76-25.75,43.1-32.72,63.46-7.25,21.12-10.79,40.75-10.53,58.3.31,21.43,6,38.86,17.89,52.96,19.93,21.55,40.9,31.1,62.73,29ZM442.4,118.73c-2.01,8.85-5.49,19.23-10.38,30.95-6.73,16.24-15.72,35.53-26.69,57.33-7.83,15.48-15.74,32.69-23.57,51.22-.41-1.77-.95-3.57-1.59-5.34-1.48-3.91-3.51-7.51-6.01-10.71-.26-5.31.38-11.2,1.95-17.61,3.1-12.76,8-25.58,14.55-38.22,6.84-13.16,15.03-25.92,24.39-37.91,9.37-12.03,18.45-21.89,26.88-29.27.17-.15.32-.27.47-.43Z"></path><path class="cls-2" d="M1763.72,797.26c-2.76-15.51-7.74-27.38-15.25-36.35-7.37-8.79-15.84-15.02-23.63-17.86-10.36-4.46-21.95-5.62-33.65-3.42-5.46.69-10.33,2.04-15,3.71,1.78-3.07,3.95-6.61,5.17-8.99,14.76-25.73,5.81-47.53-9.62-57.75-.95-.64-1.94-1.19-2.95-1.74-8.84-4.55-18.62-5.74-29.04-3.17-4.14,1.1-8,2.78-11.48,4.91,4.27-11.69,6.73-23.38,7.3-34.8.63-13.06-1.33-25.24-5.8-36.14-5.52-13.46-15.25-24.18-28.83-31.29-15.66-7.72-32.16-10.44-48.98-8.06-14.77,2.11-29.2,7.39-42.84,15.72-10.46,6.37-20.26,14.16-29.46,22.75,2.76-7.74,5.52-15.61,8.27-22.66,7.94-20.27,15.37-37.3,22.12-50.7,5.31-10.53,8.06-14.84,9.07-16.3.92-.89,1.77-1.8,2.56-2.78l3.37-4.21,2.21-2.75c9.55-12,10.58-23.63,9.74-31.26-.15-1.34-.38-2.66-.69-3.94-4.87-20.18-17.31-35.26-34.94-42.43-8.79-3.6-14.65-5.89-17.58-6.99-2.75-1.04-5.65-1.71-8.58-1.95-3.91-.31-7.22-.52-10.33-.64-4.01-.03-6.99.03-9.91.31-7.81.89-14.09,2.2-18.74,3.72-3.72,1.16-7.05,2.29-10,3.39-2.18.79-4.26,1.83-6.21,3.08-3.69,2.38-6.65,4.91-9.02,7.48-11.42,9.49-21.12,22.83-29.52,40.54-7.65,16.03-14.9,34.68-21.55,55.4-6.52,20.33-12.29,41.85-17.15,63.98-1.27,5.78-2.38,11.15-3.55,16.7-.42-.23-.73-.56-1.16-.77-7.72-3.88-13.84-6.26-19.34-7.48-2.34-.7-5.11-1.34-8.38-1.89-.23-.04-.7-.06-.95-.1,8.17-8.65,15.83-22.87,13.36-45.45-2.14-19.32-11.83-35.16-28.05-45.82-11.28-7.42-24.21-12.88-38.51-16.27-11.6-2.72-23.53-4.27-35.53-4.67-4.69-10.65-11.14-17.58-16.47-21.89-8.68-6.99-18.38-11.81-29.14-14.38-6.44-1.47-12.19-1.98-17.71-2.05,6.42-4.92,10.81-11.41,13.02-17.82,4.47-11.32,3.1-24.08-3.88-34.74l-2.43-3.75c-.84-1.28-1.76-2.5-2.78-3.66-6.62-7.54-10.41-15.45-11.57-24.15-1.53-11.51-.9-24.66,2.01-39.87,2.5-15.26,6.3-30.22,11.29-44.41.43-1.25.78-2.5,1.07-3.79,3.62-16.91-.95-29.64-6.14-37.94-5.88-11.45-17.48-25.95-40.17-34.95-.61-.24-1.24-.46-1.86-.67-.99-.4-2.01-.76-3.05-1.04l-.92-.27c-.11-.43-.21-.85-.34-1.25-4.46-16.06-14.73-29.09-28.07-36.69-8.47-5.59-17.46-8.94-26.94-10.07-3.97-.43-7.19-.85-9.63-1.19-1.36-.21-2.73-.31-4.11-.34-24.59.15-47.79,9.92-66.56,29.55-14.55,15.17-26.56,30.83-35.06,45.54-5.36,8.42-11.08,19.17-16.94,31.87-5.97,12.79-11.32,26.59-15.92,40.93-4.73,14.68-8.36,29.82-10.79,44.99-2.69,16.97-2.82,32.94-.35,47.47,2.87,16.79,9.52,31.38,19.72,43.28,12.01,14.1,29.23,22.22,50.98,24.11,3.5.34,6.96.52,10.38.52,23.95,0,45.8-8.09,63.71-23.69,2.64-2.32,5.23-4.67,7.75-7.11,10.97,11.05,23.09,18.59,34.26,21.86,9.63,3.58,20.3,4.95,31.39,5.25-9.02,3.83-16.4,8.92-22.16,15.39-5.02,5.59-10.12,12.64-15.46,21.31-8.73.7-14.87,1.22-18.39,1.62-7.33.79-12.52,1.71-15.67,2.5-1.22.34-2.9.52-5.04.76-3.79.4-12.27,1.04-26.27,1.92-24.51,2.08-44.9,2.35-60.62.79-15.55-1.53-27.91-3.63-36.86-6.32-11.94-3.48-16.88-5.77-18.48-6.62-8.07-4.18-17.95-8.52-28.75-7.14-7.78.82-33.59,6.35-38.54,42.19-1.68,12.58-2.11,21.18-1.37,27.84,1.31,11.97,5.3,23.38,11.8,33.82,6.97,11.26,17.09,20.57,30.05,27.62,9.93,5.4,22.09,8.46,35.76,10.25l-1.81.83c-3.05,1.4-6.58,3.33-10.52,5.86-13.32,8.61-24.73,17.86-33.82,27.41-9.07,9.46-16.56,19.08-22.27,28.57-5.37,8.91-9.62,17.28-12.65,24.88-1.5,3.82-2.59,6.88-3.5,9.58-.41-9.81-1.88-19.22-5.34-27.62-5.51-13.52-15.25-24.24-28.85-31.35-15.64-7.72-32.11-10.53-49.08-8.06-3.7.53-7.27,1.85-10.92,2.77,2.44-8.86,3.86-17.81,4.2-26.79.82-20.7-4.95-39.5-17.34-56.2-18.54-24.39-39.59-31.04-54.15-32.36-16.42-1.43-32.19.64-45.41,5.52-20.44,6.53-39.54,17.7-56.7,33.15-12.77,11.43-24.36,23.5-35.05,35.85-.37-.57-.45-1.19-.85-1.76-.41-.58-.82-1.16-1.27-1.71-7.16-8.91-20.59-20.33-43.85-24.15-15.02-2.44-30.83-1.71-47.19,2.29-15.7,3.91-30.75,10.84-44.67,20.51-5.7,3.95-10.23,8.75-14.83,13.5-6.79-.98-13.66-1.7-20.72-2.06-3.61-11.28-8.36-21.97-14.76-31.74-16.67-25.37-42.38-39.96-74.36-42.22-28.24-1.71-55.45,4-81.24,17.77-23.89,12.73-45.53,30.22-64.36,51.95-18.04,20.85-33.85,44.75-46.98,71-13.13,26.13-23.08,53.08-29.59,80.13-6.36,26.4-10.67,54.46-12.81,83.36-2.06,28.24-2.98,54.76-2.75,78.88.24,23.96.84,44.81,1.77,62.48.46,8.91.87,16.18,1.22,21.73-8.15,12.39-13.72,23.2-16.86,32.63-7.49,21.43-9.8,39.32-7.05,54.64,1.82,10.26,3.71,18.13,5.88,24.36,1.68,7.72,5.27,14.8,10.55,20.76.75.98,1.56,1.95,2.43,2.87,1.1,1.25,2.3,2.44,3.62,3.51.35.31.72.61,1.1.89,2.67,2.23,5.34,3.88,7.97,5.1,6.46,3.97,13.83,6.04,21.67,6.04,1.53,0,3.08-.06,4.66-.24,15.51-1.89,24.83-13.43,27.9-17.22,1.85-2.29,3.33-4.91,4.44-7.75.55-1.1,1.04-2.26,1.47-3.42l1.54-4.21c.49-1.37.9-2.72,1.25-4.03,1.05-2.17,2.2-4.49,3.45-6.87,1.77-3.42,3.57-6.62,6.79-11.9,2.06-4,4.4-8.33,7.08-13.1,10.87-19.57,22.36-35.47,34.11-47.25,12.04-12.06,23.64-21.43,34.52-27.84,10.29-6.1,19.72-10.16,27.98-12.06,11.71-2.66,19.05-3.36,21-3.48,6.35.27,8.93,1.37,11.48,3.11.32,1.8.63,3.57.87,5.22-.32,2.5-.35,5.07-.06,7.63.7,6.2,2.95,12.18,6.88,18.28,8.33,12.85,26.69,21.89,45.85,11.66,17.61-8.09,30.62-19.54,38.67-34.04,2.84-5.13,5.04-10.18,6.97-15.14,6.24,1.61,12.48,2.67,18.66,3.02,2.92.18,5.78.24,8.62.24,7.14,0,14.04-.52,20.59-1.56,4.42-.7,8.22-2.29,12.35-3.41,1.21,14.71,3.3,28.66,7.31,40.8,7.62,22.99,21.89,40.26,42.29,50.49,12.59,5.77,25.37,8.64,38.03,8.64,14.06,0,27.98-3.54,41.32-10.62,21.87-11.57,40.48-30.13,55.31-55.19,13.55-22.99,23.76-50.7,30.36-82.42.78-3.74,1.02-7.63,1.64-11.42,10.03,8.62,23.55,16.26,42.5,20.12,8.94,1.92,17.8,2.87,26.57,2.87.59,0,1.16-.19,1.75-.2-2.01,2.28-3.81,4.69-5.16,7.28-2.53,4.82-4.11,8.42-4.9,10.56-1.08,2.93-1.71,5.98-1.89,9.1-1.85,33.06,8.47,61.63,29.88,82.69,17.8,17.4,42.31,26.16,72.76,26.16,7.54,0,15.46-.55,23.72-1.62,17.66-1.95,35.79-6.29,53.86-12.88,17.02-6.2,33.27-13.31,48.27-21.12,14.59-7.54,27.62-14.77,39.16-21.64,11.9-7.14,20.89-12.88,25.88-16.45,7.83-5.07,15.45-9.49,22.97-13.37l21.34-11.2c7.26-3.6,14.18-7.14,20.38-10.44,24.07-12.33,45.21-20.63,62.84-24.66-.44,19.41,2.84,38.67,9.72,57.26,7.94,21.52,21.67,39.16,40.81,52.41,20.86,14.44,48.32,18.53,81.2,12.27,26.86-4.58,50.44-13.86,70.15-27.66,18.28-12.85,33.81-27.2,46.17-42.64,8.64-10.81,16.45-25.61,23.9-45.24,8.59-22.62,9.2-47.92,1.53-76.19-3.07-10.02-7.45-17.48-12.17-23.93,5.96,3.64,11.97,6.83,17.97,9.04,8.27,3.02,16.41,4.88,23.96,5.52,4.35.4,7.68.7,10.03,1.04,1.48.21,2.99.34,4.49.34,1.19,0,2.38-.06,3.57-.21,2.64-.31,5.91-.89,9.74-1.98,10.38-2.87,18.89-9.95,23.99-19.87.29-.56.51-1.16.77-1.74,6.25,2.74,13.02,5.19,20.98,6.81,8.94,1.92,17.8,2.87,26.57,2.87,18.18,0,35.94-4.09,53.11-12.3,22.04-10.56,42.23-24.51,59.97-41.48,10.68-10.19,20.05-20.88,28.78-31.76-.42,4.76-1.2,9.66-2.73,14.78-3.16,10.53-5.45,17.77-6.87,21.61-6.06,16.42-2.7,28.72,1.19,36.14,5.28,10.07,14.73,17.31,26.48,20.33,5.11,1.34,10.49,1.98,16.07,1.98,8.88,0,18.31-1.68,28.2-5.04,15.23-5.13,28.85-13.98,40.46-26.31,14.44-15.32,20.79-34.92,18.1-58.67ZM814.17,765.97c0,.1.04.19.05.28-.04.03-.1.03-.14.06.04-.11.06-.23.1-.34ZM1230.42,601.02c3.52,9.54,10.78,16.3,19.6,20.16-5.72,6.5-10.8,15.35-12.99,28.29-.2,1.16-.34,2.32-.4,3.51-1.83-4.43-4.37-8.61-7.6-12.48-7.02-8.36-13.1-13.92-18.47-17.12-5.91-3.75-11.26-6.35-17.14-8.18l-2.96-.98c-4.27-1.76-9.79-2.85-16.29-3.68.23-.49.46-1.03.69-1.51,3.77-7.97,7.42-15.29,10.94-21.98,1.6.06,3.28.15,4.99.31,8.23.73,16.15,2.17,23.53,4.27,5.81,1.65,10.81,3.94,14.84,5.1.32,1.47.73,2.9,1.25,4.3ZM986.14,786.88c.56-.6,1.06-1.39,1.62-2.02-.16.96-.31,1.98-.46,2.96-.41-.28-.74-.66-1.16-.94ZM1030.41,616.22c-3.83,12.69-7.33,24.87-10.62,36.7-6.21-13.01-16.17-23.39-29.69-29.59-3.24-1.53-6.54-2.25-9.81-3.42,18.4-4.63,36.59-9.74,53.78-15.57-1.24,3.91-2.46,7.88-3.66,11.87ZM278.71,874.73c-13.52-2.9-27.78-3.6-43.41-1.89-24.48,3.51-48.55,11.26-71.53,23.05-2.23,1.13-4.43,2.29-6.62,3.45.18-1.83.37-3.72.55-5.62,1.74-17.64,4.7-37.03,8.76-57.72,2.64,2.5,5.51,4.82,8.65,6.9,12.42,7.91,24.65,11.02,38.69,11.57,10.35-.18,20.04-1.8,27.7-4.43,10-2.99,19.46-7.39,29.84-14.19,17.45-13.04,31.98-28.14,44.13-44.74-4.1,13.26-8.13,27.96-12.11,44.43-4.17,16.55-7.17,31.58-9.06,45.31-5.02-2.31-10.02-4.65-15.59-6.12ZM600.96,789.78c-.07.17-.09.33-.16.49-1.42-2.74-2.62-5.49-4.25-8.28-3.42-5.28-7.25-9.98-11.48-14.07,9.92-1.29,19.45-3.7,29.02-5.98-4.75,8.97-9.25,18.17-13.14,27.83ZM1330.74,853.49c-6.3-2.5-12.55-4.52-18.91-5.95.02-.06.05-.12.08-.18,3.93-7.28,7.45-14.97,11.02-22.61,1.61,5.85,2.83,11.97,5.15,17.39,2.49,5.43,5.64,10.13,8.98,14.6-2.14-1.13-4.34-2.45-6.33-3.24ZM1006.97,326.11c.02-.61.05-1.25.09-1.89.61-7.94,2.75-16.91,6.35-26.68.67-1.83,1.37-3.63,2.09-5.37,3.01,3.88,7.59,8.06,14.35,10.74-.29,1.43-.5,2.81-.64,4.06-5.72,5.62-11.83,11.02-18.22,16.15-1.54,1.22-2.87,2.2-4.01,2.99ZM739.8,955.38c22.04-10.53,42.23-24.48,60-41.48,3.6-3.44,6.64-7.07,10.02-10.59,6.6,9.7,14.97,18.7,25.56,26.71,7.57,5.7,16.84,10.1,27.27,13.72-2.41.79-4.43,1.54-6.91,2.34-19.93,6.56-37.51,11.14-52.29,13.68-14.79,2.53-27.27,3.94-37.12,4.15-10.78.21-16.99-.67-20.31-1.5-6.17-1.53-11-2.84-12.55-3.33-.72-.32-1.39-.44-2.1-.72,2.79-1.11,5.67-1.65,8.44-2.98Z"></path></g><g><path class="cls-2" d="M322.73,381.06c16.5-1.83,30.25-7.08,40.93-15.57-12.19,31.38-21.17,60.56-26.74,86.93-6.58,31.1-9.97,58.49-10.03,81.32-.09,24.27,2.38,43.96,7.55,60.26,6.78,21.34,16.96,35.32,28.46,41.12,16.7,10.93,33.36,16.45,49.62,16.45,1.16,0,2.3-.03,3.46-.09,15.81-.76,29.56-4.58,41.85-11.9,15.05-9.74,22.65-24.85,20.85-41.45-.52-4.7-1.54-9.13-3.07-13.25-3.28-13.25-4.29-29.47-3.12-48.27,2.16,4.43,4.06,9.15,6.89,12.84,8.21,10.68,17.81,18.99,28.37,24.57,10.35,5.52,20.96,8.88,31.65,9.92l14.91,1.43c.93.09,1.86.12,2.79.12,1.28,0,2.55-.09,3.82-.24,5.37-.64,10.99-2.35,16.71-5.04,15.17-7.08,23.4-22.31,21.47-39.65-.98-8.94-4.04-17.92-9.1-26.71-.24-.43-1.11-2.2-1.57-6.35-1.59-14.35-1.1-29.27,1.45-44.38,2.59-15.45,4.5-25.98,5.8-31.59.52-1.53,1.1-3.39,1.51-5.56.2-.7.37-1.37.52-2.11,4.24-19.66,9.36-39.13,15.23-57.87,5.94-18.93,12.38-36.97,19.14-53.6,6.87-16.94,13.71-32.6,20.57-47.01,3.79-7.97,7.43-15.29,10.94-21.98,1.6.06,3.27.15,4.99.31,8.23.73,16.15,2.17,23.53,4.27,5.81,1.65,10.81,3.94,14.84,5.1.31,1.47.73,2.9,1.25,4.33.74,2,2.04,3.56,3.07,5.34-1.75,1.67-3.82,3.29-5.42,4.98-9.07,9.46-16.57,19.08-22.31,28.63-5.37,8.94-9.62,17.28-12.62,24.85-2.29,5.83-3.86,10.38-4.81,13.55-4.33,11.32-6.33,23.35-5.91,36.11.29,6.07,1.27,12.03,2.95,17.92l-.79.52c-5.78,3.75-13.49,11.11-16.53,22.41-2.43,6.59-4.4,15.9-6.18,29.18-2.18,15.84-.21,32.51,5.85,49.45,6.38,18.04,18.62,33.97,36.39,47.4,18.07,13.61,43.85,21.15,79.35,23.11,1.98.09,3.94.12,5.88.12,15.16,0,29.33-2.29,41.91-6.75,13.2-4.4,25.72-12.03,37.22-22.65,13.89-12.82,22.19-31.17,24.62-54.24,2.58-22.74-1.62-42.09-12.52-57.54-7.11-10.07-15.74-18.5-25.7-25.18,3.95-4.24,7.77-9,11.43-14.19,10.53-14.99,18.47-30.98,23.63-47.59,5.54-17.89,7.19-35.41,4.9-52.23-3.17-22.77-16.1-40.45-35.99-49.54-11.75-5.56-23.85-8.21-35.75-8.52.04-2.91.05-5.85-.3-9.09-.69-6.25-2.46-11.98-4.71-17.45,6.9-4.44,13.36-9.78,19.28-16.07,14.44-15.26,20.82-34.86,18.13-58.73-2.78-15.51-7.75-27.38-15.25-36.32-7.36-8.76-15.83-14.96-23.63-17.83-10.45-4.55-22.08-5.65-33.71-3.42-8.61,1.1-15.92,3.3-22.47,6.75-4.15,2.26-7.65,4.58-10.61,7.11-2.87,1.89-5.43,4.12-7.39,6.56-5.8,7.23-8.39,16.57-7.48,24.39.34,7.08-.7,14.74-3.08,22.71-2.16,7.18-3.76,12.24-5.11,16.34-2.06-.14-4-.73-6.08-.8-4.69-10.65-11.16-17.61-16.56-21.95-8.78-7.02-18.5-11.81-28.89-14.26-9.36-2.2-17.58-2.87-25.46-2.01l-3.79.43c-.32.03-.66.06-.99.12-23.61,2.72-40.55,10.2-51.72,22.77-5.16,5.77-10.41,13.03-15.87,22.01-.51.01-.98.02-1.47.03-1.59-5.8-3.38-11.53-5.74-17.09-5.91-12.85-14.8-25.31-26.48-37.03-12.99-13-29.11-22.07-47.92-27.01-18.7-4.95-39.62-4.4-62.13,1.59-22.24,5.92-45.05,19.41-69.29,40.84-22.99,19.6-42.11,40.54-56.81,62.21-14.74,21.76-25.75,43.1-32.72,63.46-7.25,21.12-10.79,40.75-10.53,58.3.31,21.43,6,38.86,17.89,52.96,19.93,21.55,40.9,31.1,62.73,29ZM442.4,181.24c-2.01,8.85-5.49,19.23-10.38,30.95-6.73,16.24-15.72,35.53-26.69,57.33-7.83,15.48-15.74,32.69-23.57,51.22-.41-1.77-.95-3.57-1.59-5.34-1.48-3.91-3.51-7.51-6.01-10.71-.26-5.31.38-11.2,1.95-17.61,3.1-12.76,8-25.58,14.55-38.22,6.84-13.16,15.03-25.92,24.39-37.91,9.37-12.03,18.45-21.89,26.88-29.27.17-.15.32-.27.47-.43Z"></path><path class="cls-2" d="M1763.72,859.78c-2.76-15.51-7.74-27.38-15.25-36.35-7.37-8.79-15.84-15.02-23.63-17.86-10.36-4.46-21.95-5.62-33.65-3.42-5.46.69-10.33,2.04-15,3.71,1.78-3.07,3.95-6.61,5.17-8.99,14.76-25.73,5.81-47.53-9.62-57.75-.95-.64-1.94-1.19-2.95-1.74-8.84-4.55-18.62-5.74-29.04-3.17-4.14,1.1-8,2.78-11.48,4.91,4.27-11.69,6.73-23.38,7.3-34.8.63-13.06-1.33-25.24-5.8-36.14-5.52-13.46-15.25-24.18-28.83-31.29-15.66-7.72-32.16-10.44-48.98-8.06-14.77,2.11-29.2,7.39-42.84,15.72-10.46,6.37-20.26,14.16-29.46,22.75,2.76-7.74,5.52-15.61,8.27-22.66,7.94-20.27,15.37-37.3,22.12-50.7,5.31-10.53,8.06-14.84,9.07-16.3.92-.89,1.77-1.8,2.56-2.78l3.37-4.21,2.21-2.75c9.55-12,10.58-23.63,9.74-31.26-.15-1.34-.38-2.66-.69-3.94-4.87-20.18-17.31-35.26-34.94-42.43-8.79-3.6-14.65-5.89-17.58-6.99-2.75-1.04-5.65-1.71-8.58-1.95-3.91-.31-7.22-.52-10.33-.64-4.01-.03-6.99.03-9.91.31-7.81.89-14.09,2.2-18.74,3.72-3.72,1.16-7.05,2.29-10,3.39-2.18.79-4.26,1.83-6.21,3.08-3.69,2.38-6.65,4.91-9.02,7.48-11.42,9.49-21.12,22.83-29.52,40.54-7.65,16.03-14.9,34.68-21.55,55.4-6.52,20.33-12.29,41.85-17.15,63.98-1.27,5.78-2.38,11.15-3.55,16.7-.42-.23-.73-.56-1.16-.77-7.72-3.88-13.84-6.26-19.34-7.48-2.34-.7-5.11-1.34-8.38-1.89-.23-.04-.7-.06-.95-.1,8.17-8.65,15.83-22.87,13.36-45.45-2.14-19.32-11.83-35.16-28.05-45.82-11.28-7.42-24.21-12.88-38.51-16.27-11.6-2.72-23.53-4.27-35.53-4.67-4.69-10.65-11.14-17.58-16.47-21.89-8.68-6.99-18.38-11.81-29.14-14.38-6.44-1.47-12.19-1.98-17.71-2.05,6.42-4.92,10.81-11.41,13.02-17.82,4.47-11.32,3.1-24.08-3.88-34.74l-2.43-3.75c-.84-1.28-1.76-2.5-2.78-3.66-6.62-7.54-10.41-15.45-11.57-24.15-1.53-11.51-.9-24.66,2.01-39.87,2.5-15.26,6.3-30.22,11.29-44.41.43-1.25.78-2.5,1.07-3.79,3.62-16.91-.95-29.64-6.14-37.94-5.88-11.45-17.48-25.95-40.17-34.95-.61-.24-1.24-.46-1.86-.67-.99-.4-2.01-.76-3.05-1.04-.31-.09-.61-.18-.92-.27-.11-.43-.21-.85-.34-1.25-4.46-16.06-14.73-29.09-28.07-36.69-8.47-5.59-17.46-8.94-26.94-10.07-3.97-.43-7.19-.85-9.63-1.19-1.36-.21-2.73-.31-4.11-.34-24.59.15-47.79,9.92-66.56,29.55-14.55,15.17-26.56,30.83-35.06,45.54-5.36,8.42-11.08,19.17-16.94,31.87-5.97,12.79-11.32,26.59-15.92,40.93-4.73,14.68-8.36,29.82-10.79,44.99-2.69,16.97-2.82,32.94-.35,47.47,2.87,16.79,9.52,31.38,19.72,43.28,12.01,14.1,29.23,22.22,50.98,24.11,3.5.34,6.96.52,10.38.52,23.95,0,45.8-8.09,63.71-23.69,2.64-2.32,5.23-4.67,7.75-7.11,10.97,11.05,23.09,18.59,34.26,21.86,9.63,3.58,20.3,4.95,31.39,5.25-9.02,3.83-16.4,8.92-22.16,15.39-5.02,5.59-10.12,12.64-15.46,21.31-8.73.7-14.87,1.22-18.39,1.62-7.33.79-12.52,1.71-15.67,2.5-1.22.34-2.9.52-5.04.76-3.79.4-12.27,1.04-26.27,1.92-24.51,2.08-44.9,2.35-60.62.79-15.55-1.53-27.91-3.63-36.86-6.32-11.94-3.48-16.88-5.77-18.48-6.62-8.07-4.18-17.95-8.52-28.75-7.14-7.78.82-33.59,6.35-38.54,42.19-1.68,12.58-2.11,21.18-1.37,27.84,1.31,11.97,5.3,23.38,11.8,33.82,6.97,11.26,17.09,20.57,30.05,27.62,9.93,5.4,22.09,8.46,35.76,10.25l-1.81.83c-3.05,1.4-6.58,3.33-10.52,5.86-13.32,8.61-24.73,17.86-33.82,27.41-9.07,9.46-16.56,19.08-22.27,28.57-5.37,8.91-9.62,17.28-12.65,24.88-1.5,3.82-2.59,6.88-3.5,9.58-.41-9.81-1.88-19.22-5.34-27.62-5.51-13.52-15.25-24.24-28.85-31.35-15.64-7.72-32.11-10.53-49.08-8.06-3.7.53-7.27,1.85-10.92,2.77,2.44-8.86,3.86-17.81,4.2-26.79.82-20.7-4.95-39.5-17.34-56.2-18.54-24.39-39.59-31.04-54.15-32.36-16.42-1.43-32.19.64-45.41,5.52-20.44,6.53-39.54,17.7-56.7,33.15-12.77,11.43-24.36,23.5-35.05,35.85-.37-.57-.45-1.19-.85-1.76-.41-.58-.82-1.16-1.27-1.71-7.16-8.91-20.59-20.33-43.85-24.15-15.02-2.44-30.83-1.71-47.19,2.29-15.7,3.91-30.75,10.84-44.67,20.51-5.7,3.95-10.23,8.75-14.83,13.5-6.79-.98-13.66-1.7-20.72-2.06-3.61-11.28-8.36-21.97-14.76-31.74-16.67-25.37-42.38-39.96-74.36-42.22-28.24-1.71-55.45,4-81.24,17.77-23.89,12.73-45.53,30.22-64.36,51.95-18.04,20.85-33.85,44.75-46.98,71-13.13,26.13-23.08,53.08-29.59,80.13-6.36,26.4-10.67,54.46-12.81,83.36-2.06,28.24-2.98,54.76-2.75,78.88.24,23.96.84,44.81,1.77,62.48.46,8.91.87,16.18,1.22,21.73-8.15,12.39-13.72,23.2-16.86,32.63-7.49,21.43-9.8,39.32-7.05,54.64,1.82,10.26,3.71,18.13,5.88,24.36,1.68,7.72,5.27,14.8,10.55,20.76.75.98,1.56,1.95,2.43,2.87,1.1,1.25,2.3,2.44,3.62,3.51.35.31.72.61,1.1.89,2.67,2.23,5.34,3.88,7.97,5.1,6.46,3.97,13.83,6.04,21.67,6.04,1.53,0,3.08-.06,4.66-.24,15.51-1.89,24.83-13.43,27.9-17.22,1.85-2.29,3.33-4.91,4.44-7.75.55-1.1,1.04-2.26,1.47-3.42l1.54-4.21c.49-1.37.9-2.72,1.25-4.03,1.05-2.17,2.2-4.49,3.45-6.87,1.77-3.42,3.57-6.62,6.79-11.9,2.06-4,4.4-8.33,7.08-13.1,10.87-19.57,22.36-35.47,34.11-47.25,12.04-12.06,23.64-21.43,34.52-27.84,10.29-6.1,19.72-10.16,27.98-12.06,11.71-2.66,19.05-3.36,21-3.48,6.35.27,8.93,1.37,11.48,3.11.32,1.8.63,3.57.87,5.22-.32,2.5-.35,5.07-.06,7.63.7,6.2,2.95,12.18,6.88,18.28,8.33,12.85,26.69,21.89,45.85,11.66,17.61-8.09,30.62-19.54,38.67-34.04,2.84-5.13,5.04-10.18,6.97-15.14,6.24,1.61,12.48,2.67,18.66,3.02,2.92.18,5.78.24,8.62.24,7.14,0,14.04-.52,20.59-1.56,4.42-.7,8.22-2.29,12.35-3.41,1.21,14.71,3.3,28.66,7.31,40.8,7.62,22.99,21.89,40.26,42.29,50.49,12.59,5.77,25.37,8.64,38.03,8.64,14.06,0,27.98-3.54,41.32-10.62,21.87-11.57,40.48-30.13,55.31-55.19,13.55-22.99,23.76-50.7,30.36-82.42.78-3.74,1.02-7.63,1.64-11.42,10.03,8.62,23.55,16.26,42.5,20.12,8.94,1.92,17.8,2.87,26.57,2.87.59,0,1.16-.19,1.75-.2-2.01,2.28-3.81,4.69-5.16,7.28-2.53,4.82-4.11,8.42-4.9,10.56-1.08,2.93-1.71,5.98-1.89,9.1-1.85,33.06,8.47,61.63,29.88,82.69,17.8,17.4,42.31,26.16,72.76,26.16,7.54,0,15.46-.55,23.72-1.62,17.66-1.95,35.79-6.29,53.86-12.88,17.02-6.2,33.27-13.31,48.27-21.12,14.59-7.54,27.62-14.77,39.16-21.64,11.9-7.14,20.89-12.88,25.88-16.45,7.83-5.07,15.45-9.49,22.97-13.37l21.34-11.2c7.26-3.6,14.18-7.14,20.38-10.44,24.07-12.33,45.21-20.63,62.84-24.66-.44,19.41,2.84,38.67,9.72,57.26,7.94,21.52,21.67,39.16,40.81,52.41,20.86,14.44,48.32,18.53,81.2,12.27,26.86-4.58,50.44-13.86,70.15-27.66,18.28-12.85,33.81-27.2,46.17-42.64,8.64-10.81,16.45-25.61,23.9-45.24,8.59-22.62,9.2-47.92,1.53-76.19-3.07-10.02-7.45-17.48-12.17-23.93,5.96,3.64,11.97,6.83,17.97,9.04,8.27,3.02,16.41,4.88,23.96,5.52,4.35.4,7.68.7,10.03,1.04,1.48.21,2.99.34,4.49.34,1.19,0,2.38-.06,3.57-.21,2.64-.31,5.91-.89,9.74-1.98,10.38-2.87,18.89-9.95,23.99-19.87.29-.56.51-1.16.77-1.74,6.25,2.74,13.02,5.19,20.98,6.81,8.94,1.92,17.8,2.87,26.57,2.87,18.18,0,35.94-4.09,53.11-12.3,22.04-10.56,42.23-24.51,59.97-41.48,10.68-10.19,20.05-20.88,28.78-31.76-.42,4.76-1.2,9.66-2.73,14.78-3.16,10.53-5.45,17.77-6.87,21.61-6.06,16.42-2.7,28.72,1.19,36.14,5.28,10.07,14.73,17.31,26.48,20.33,5.11,1.34,10.49,1.98,16.07,1.98,8.88,0,18.31-1.68,28.2-5.04,15.23-5.13,28.85-13.98,40.46-26.31,14.44-15.32,20.79-34.92,18.1-58.67ZM814.17,828.48c0,.1.04.19.05.28-.04.03-.1.03-.14.06.04-.11.06-.23.1-.34ZM1230.42,663.53c3.52,9.54,10.78,16.3,19.6,20.16-5.72,6.5-10.8,15.35-12.99,28.29-.2,1.16-.34,2.32-.4,3.51-1.83-4.43-4.37-8.61-7.6-12.48-7.02-8.36-13.1-13.92-18.47-17.12-5.91-3.75-11.26-6.35-17.14-8.18l-2.96-.98c-4.27-1.76-9.79-2.85-16.29-3.68.23-.49.46-1.03.69-1.51,3.77-7.97,7.42-15.29,10.94-21.98,1.6.06,3.28.15,4.99.31,8.23.73,16.15,2.17,23.53,4.27,5.81,1.65,10.81,3.94,14.84,5.1.32,1.47.73,2.9,1.25,4.3ZM986.14,849.4c.56-.6,1.06-1.39,1.62-2.02-.16.96-.31,1.98-.46,2.96-.41-.28-.74-.66-1.16-.94ZM1030.41,678.73c-3.83,12.69-7.33,24.87-10.62,36.7-6.21-13.01-16.17-23.39-29.69-29.59-3.24-1.53-6.54-2.25-9.81-3.42,18.4-4.63,36.59-9.74,53.78-15.57-1.24,3.91-2.46,7.88-3.66,11.87ZM278.71,937.25c-13.52-2.9-27.78-3.6-43.41-1.89-24.48,3.51-48.55,11.26-71.53,23.05-2.23,1.13-4.43,2.29-6.62,3.45.18-1.83.37-3.72.55-5.62,1.74-17.64,4.7-37.03,8.76-57.72,2.64,2.5,5.51,4.82,8.65,6.9,12.42,7.91,24.65,11.02,38.69,11.57,10.35-.18,20.04-1.8,27.7-4.43,10-2.99,19.46-7.39,29.84-14.19,17.45-13.04,31.98-28.14,44.13-44.74-4.1,13.26-8.13,27.96-12.11,44.43-4.17,16.55-7.17,31.58-9.06,45.31-5.02-2.31-10.02-4.65-15.59-6.12ZM600.96,852.3c-.07.17-.09.33-.16.49-1.42-2.74-2.62-5.49-4.25-8.28-3.42-5.28-7.25-9.98-11.48-14.07,9.92-1.29,19.45-3.7,29.02-5.98-4.75,8.97-9.25,18.17-13.14,27.83ZM1330.74,916c-6.3-2.5-12.55-4.52-18.91-5.95.02-.06.05-.12.08-.18,3.93-7.28,7.45-14.97,11.02-22.61,1.61,5.85,2.83,11.97,5.15,17.39,2.49,5.43,5.64,10.13,8.98,14.6-2.14-1.13-4.34-2.45-6.33-3.24ZM1006.97,388.63c.02-.61.05-1.25.09-1.89.61-7.94,2.75-16.91,6.35-26.68.67-1.83,1.37-3.63,2.09-5.37,3.01,3.88,7.59,8.06,14.35,10.74-.29,1.43-.5,2.81-.64,4.06-5.72,5.62-11.83,11.02-18.22,16.15-1.54,1.22-2.87,2.2-4.01,2.99ZM739.8,1017.89c22.04-10.53,42.23-24.48,60-41.48,3.6-3.44,6.64-7.07,10.02-10.59,6.6,9.7,14.97,18.7,25.56,26.71,7.57,5.7,16.84,10.1,27.27,13.72-2.41.79-4.43,1.54-6.91,2.34-19.93,6.56-37.51,11.14-52.29,13.68-14.79,2.53-27.27,3.94-37.12,4.15-10.78.21-16.99-.67-20.31-1.5-6.17-1.53-11-2.84-12.55-3.33-.72-.32-1.39-.44-2.1-.72,2.79-1.11,5.67-1.65,8.44-2.98Z"></path></g><g><path class="cls-1" d="M345.35,277.55c-6.12,5.37-14.81,8.66-26.07,9.9-11.29,1.24-23.38-5.13-36.33-19.12-6.19-7.36-9.38-18.1-9.58-32.17-.21-14.04,2.73-29.97,8.84-47.74,6.09-17.78,15.76-36.47,29.03-56.05,13.27-19.58,30.34-38.2,51.2-55.94,20.78-18.38,39.81-29.87,57.08-34.48,17.26-4.57,32.65-5.1,46.12-1.55,13.47,3.55,24.73,9.87,33.78,18.91,9.05,9.08,15.77,18.41,20.19,27.96,8.15,19.25,10.1,41.33,5.8,66.28-4.3,24.98-10.39,47.3-18.28,66.93-4.3,9.87-10.91,27.55-19.83,53.01-8.93,25.46-17.56,53.74-25.86,84.84-8.32,31.1-14.43,62.49-18.31,94.12-3.9,31.6-2.99,58.19,2.75,79.7.87,1.9,1.46,4.2,1.75,6.84.51,4.64-1.74,8.58-6.74,11.83-6.93,4.11-15.74,6.4-26.4,6.93-10.69.5-22.18-3.27-34.46-11.31-6.4-3.32-11.67-11.46-15.77-24.43-4.12-12.97-6.16-29.85-6.09-50.64.06-20.8,3.17-45.8,9.35-74.98,6.16-29.21,16.68-61.72,31.51-97.56,11.51-29.46,22.92-55.38,34.21-77.75,11.28-22.37,20.51-42.15,27.67-59.4,7.16-17.22,11.71-32.12,13.68-44.78,1.97-12.62-.25-23.62-6.64-32.99-4.05-6.25-10.3-8.08-18.72-5.46-8.43,2.62-17.69,8.34-27.79,17.13-10.1,8.85-20.44,20.06-31.01,33.63-10.59,13.57-19.75,27.82-27.49,42.77-7.77,14.95-13.48,30.01-17.17,45.16-3.7,15.18-3.86,28.95-.49,41.3,2.79,1.04,4.68,2.86,5.63,5.43,1.9,5.16.06,9.73-5.54,13.69Z"></path><path class="cls-1" d="M644.36,151.04c-6.2,10.73-12.84,23.53-19.91,38.4-7.1,14.88-14.18,31.11-21.31,48.66-7.13,17.55-13.79,36.22-19.99,56.04-6.22,19.79-11.53,40-15.97,60.63-.52,1.41-.75,2.26-.72,2.57.04.36-.22,1.22-.73,2.6-1.4,5.53-3.62,17.35-6.66,35.47-3.04,18.12-3.6,35.77-1.7,53.01.81,7.31,2.64,13.47,5.56,18.52,2.91,5.05,4.61,9.9,5.12,14.51.44,3.97-.77,6.63-3.65,7.96-2.86,1.33-5.3,2.09-7.28,2.31-3.4-.3-8.32-.77-14.74-1.39-6.46-.64-13.06-2.77-19.84-6.38-6.77-3.58-12.9-8.96-18.37-16.06-5.47-7.11-8.95-17.29-10.42-30.58s-1.25-26.67.6-40.3c1.85-13.62,3.91-25.24,6.21-34.89.36-2.74,2.42-11.51,6.16-26.35,3.72-14.84,8.18-32.26,13.36-52.3,5.18-20.01,11.18-41.49,18.08-64.36,3.69-12.32,7.65-24.56,11.93-36.69,2.02-5.73,3.9-11.64,6.32-17.22,2.53-5.83,5.16-6.67,10.74-9.9,5.53-3.2,11.06-6.41,16.6-9.61-10.56,3.54-21.08,7.24-31.66,10.67-6.83,2.21-13.95,2.33-21.03,3.84-8.04,1.72-13.73-.76-14.76-10.03-.64-5.81,1.14-11.85,4.84-16.37,5.49-6.72,15.29-10.08,23.64-10.97,4.24-.45,28.47.15,29.8-2.34,7.22-13.51,13.82-23.66,19.8-30.34,5.97-6.71,16.92-10.92,32.83-12.68-1.34.15,0,0,3.97-.44,3.97-.44,8.88.04,14.74,1.39,5.85,1.38,11.36,4.12,16.51,8.25,5.14,4.13,8.53,10.48,10.14,19,.29,2.67-1.33,6.2-4.87,10.61,6.61-.73,15.49-1.03,26.57-.9,11.07.13,21.94,1.42,32.63,3.93,10.67,2.54,20.16,6.5,28.48,11.97,8.31,5.47,13.03,13.15,14.12,23.1,1.24,11.26-1.59,19.12-8.47,23.57-6.9,4.44-12.6,7.59-17.08,9.44-3.32.37-5.46-.75-6.4-3.32-1.4-6.57-5.55-12.32-12.47-17.27-6.93-4.92-15.06-8.72-24.39-11.38-9.35-2.65-19.11-4.44-29.27-5.34-10.15-.88-19.18-.56-27.07.99Z"></path><path class="cls-1" d="M764.61,294.78c2.42-2.26,5.03-6.08,7.8-11.42,2.76-5.31,5.15-11.13,7.15-17.37,1.98-6.27,3.02-12.06,3.1-17.45.07-5.38-1.06-9.62-3.41-12.71-3.76-3.61-8.61-2.09-14.59,4.62-5.97,6.71-11.69,15.72-17.14,27.04l.11,1-.89,1.11c-2.59,6.98-4.63,14.27-6.15,21.81-1.53,7.57-2.25,14.68-2.18,21.37.06,6.72,1.54,12.57,4.46,17.63,2.91,5.05,7.1,8.28,12.64,9.66,6.18,1.35,14.22,2.82,24.13,4.4,9.89,1.58,19.65,4.87,29.26,9.86,9.61,4.96,17.58,11.97,23.95,21.01,6.35,9.03,8.67,21,6.97,35.96-1.64,15.63-6.55,27.22-14.77,34.82-8.22,7.6-16.86,12.94-25.91,15.94-11,3.88-23.22,5.57-36.68,5.05-28.35-1.58-48.95-7.2-61.74-16.84-12.8-9.68-21.39-20.61-25.75-32.88-4.38-12.26-5.82-23.86-4.33-34.75,1.47-10.91,3-18.45,4.55-22.64.96-3.45,2.37-5.79,4.25-7.01,1.88-1.22,3.44-2.22,4.7-3.04,3.31-.36,6.55,1.64,9.72,5.96,3.01,9.07,9.75,17.04,20.25,23.93,10.48,6.89,21.82,12.37,34.01,16.4,12.18,4.03,23.48,6.13,33.91,6.31,10.4.21,16.98-2.52,19.72-8.19,2.72-5.67,1.35-10.56-4.13-14.65-5.47-4.07-12.09-7.73-19.81-10.9-9.14-3.66-19.91-7.2-32.36-10.53-19.82-3.16-33.64-9.87-41.46-20.06-7.84-10.22-12.01-20.66-12.51-31.33-.3-8.69,1.16-16.9,4.33-24.65.44-2.04,1.85-6.07,4.22-12.04,2.36-5.94,5.8-12.71,10.35-20.24,4.53-7.56,10.56-15.26,18.07-23.12,7.51-7.89,16.92-15.47,28.19-22.73,2.49-1.63,4.72-2.88,6.63-3.77,1.92-.86,3.83-1.74,5.74-2.63,8.9-4.33,17.89-6.67,26.9-6.99,9.02-.32,18.14,1.69,27.34,6.05,10.59,4.85,16.73,13.42,18.43,25.64,1.67,12.22.4,25.11-3.79,38.65-4.22,13.55-10.67,26.51-19.36,38.86-8.71,12.38-17.84,20.76-27.43,25.16-10.17,5.14-17.79,7.49-22.87,7.03-5.07-.42-8.42-1.9-10.04-4.42l-1.11-.89c-3.16-4.32-3.88-9.28-2.14-14.84,1.74-5.57,4.96-11.26,9.68-17.19Z"></path><path class="cls-1" d="M1133.56,273.26c-5.63,16.07-9.84,32.62-12.64,49.7-3.41,17.82-4.13,34.17-2.15,49.03,1.98,14.89,8.32,28.44,19.08,40.68l2.43,3.76c1.61,2.49,1.87,4.83.77,6.95-.9,4.12-5.06,5.93-12.49,5.4-12.61,1.39-23.8.29-33.58-3.33-8.32-2.46-16.27-7.6-23.85-15.49-7.58-7.86-12.24-19.78-13.99-35.68-9.66,15.84-21.54,29.89-35.6,42.16-14.09,12.27-30.96,17.51-50.6,15.65-13.57-1.21-23.61-5.63-30.15-13.29-6.54-7.66-10.77-17.09-12.68-28.3-1.89-11.18-1.74-23.61.42-37.27,2.18-13.66,5.4-27.1,9.65-40.31,4.23-13.21,9.07-25.66,14.5-37.31,5.41-11.68,10.42-21.11,15-28.34,7.89-13.58,18.29-27.17,31.24-40.66,12.93-13.49,27.48-20.13,43.59-19.91,2.71.38,6.3.84,10.71,1.34,4.42.53,8.8,2.22,13.15,5.09,7.87,4.51,12.91,10.83,15.17,18.97,2.23,8.14,2.53,17.01.9,26.56l.11,1,1-.11c5.45-5.27,12.34-6.7,20.66-4.27.73.6,1.43.83,2.09.75,11.93,4.74,20.09,11.88,24.51,21.47,3.15,4.35,4.08,9.59,2.75,15.79ZM1061.61,305.36c1.2-7.53,2.7-15.07,4.55-22.64,1.83-7.6,4.02-15.21,6.54-22.86-2.96,3.67-6.14,6.88-9.51,9.58-3.4,2.74-7.75,4.39-13.04,4.97-5.96.66-9.39.02-10.26-1.88-1.63-2.49-1.99-5.83-1.1-9.95l2.65-3.3.89-1.11c2.28-3.6,3.84-9.15,4.71-16.61.83-7.49-1.92-12.87-8.32-16.19-5.68-2.75-11.9-1.36-18.67,4.05-6.8,5.45-13.31,13.23-19.58,23.28-6.27,10.09-11.73,21.44-16.38,34.02-4.65,12.58-7.38,24.31-8.2,35.11-.82,10.84.85,20.02,5.05,27.6,4.19,7.62,11.94,11.12,23.3,10.52,7.36-.13,16.13-4.29,26.3-12.45,10.17-8.15,19.44-16.73,27.86-25.7,1.03-2.79,1.55-5.55,1.61-8.22.03-2.67.55-5.44,1.6-8.22Z"></path><path class="cls-1" d="M37.28,1121.33c-1.85-4.5-3.63-11.67-5.38-21.55-1.76-9.85.16-22.83,5.78-38.87,3.03-9.05,9.47-20.51,19.36-34.32-.44-4.01-1.11-14.65-2-31.99-.91-17.34-1.49-37.73-1.72-61.2-.23-23.44.67-48.87,2.67-76.27,2.02-27.4,6.02-53.48,12.01-78.31,5.97-24.8,15.02-49.29,27.14-73.41,12.08-24.15,26.31-45.68,42.7-64.59,16.36-18.91,34.84-33.87,55.43-44.86,20.58-10.96,42.05-15.69,64.35-14.12,22.31,1.56,39.1,10.95,50.41,28.17,11.28,17.21,16.89,37.72,16.84,61.53-.06,23.84-6.07,48.48-18.02,73.94-11.97,25.46-30.02,47.25-54.19,65.33-6.26,4.07-12.97,7.14-20.11,9.28-5.81,1.99-12.24,3.01-19.28,3.11-7.03.13-14.16-2.09-21.36-6.68-4.36-2.9-7.82-7.03-10.43-12.46-2.61-5.39-3.92-11.15-3.9-17.17,0-6.05,1.03-11.84,3.1-17.45,2.05-5.6,5.27-9.98,9.62-13.16,1.25-.78,2.7-1.43,4.31-1.98,1.62-.49,3.23.5,4.86,3,1.69,3.19,4.32,5.73,7.89,7.67,3.56,1.97,8.41.27,14.53-5.1,4.34-3.15,10.36-11.03,18.02-23.64,7.67-12.58,14.55-26.26,20.65-41,6.08-14.77,10.23-28.8,12.46-42.12,2.22-13.33-.01-22.97-6.71-28.96-7.45-6.55-17.07-5.49-28.84,3.18-11.79,8.7-23.62,21.73-35.44,39.13-11.84,17.4-23.04,37.42-33.63,60.06-10.59,22.63-18.73,44.66-24.41,66.07-8.74,36.52-14.52,69.19-17.38,98.03-2.88,28.82-4.38,51.64-4.55,68.4,17.31-13.3,35.98-25.09,55.97-35.34,20.01-10.25,40.57-16.88,61.72-19.88,11.26-1.24,22.06-.74,32.36,1.47,8.97,2.39,17.55,7.13,25.73,14.27,8.16,7.15,14.08,18.26,17.76,33.27,1.82,10.55,1.88,20.25.19,29.15-1.19,7.5-4.17,15.57-8.92,24.14-4.75,8.57-12.88,15.51-24.36,20.8-3.19,1.67-5.37,1.57-6.57-.29-1.22-1.89-1.9-3.48-2.05-4.81.58-.74.85-1.45.78-2.08-.44-4.01-1.08-8.3-1.92-12.87-.86-4.63-2.86-9.11-6.01-13.43-3.17-4.35-7.58-7.89-13.24-10.61-5.69-2.75-12.89-4.29-21.66-4.68-8.02.24-17.77,1.62-29.21,4.23-11.46,2.61-23.8,7.81-37.02,15.66-13.23,7.81-26.79,18.71-40.69,32.64-13.9,13.94-27,32-39.32,54.14-2.81,5.01-5.31,9.64-7.53,13.91-2.29,3.6-4.54,7.56-6.74,11.83-2.22,4.27-4.14,8.16-5.76,11.69.07.67-.15,1.71-.66,3.11-.52,1.38-1.04,2.79-1.55,4.19l-.89,1.08.11,1c-2.96,3.67-5.41,5.63-7.4,5.85-2.65.29-5.09-.45-7.29-2.21-.74-.59-1.28-.87-1.6-.84-.35.04-.87-.24-1.6-.84-.07-.67-.46-.96-1.11-.89-.07-.67-.27-.95-.61-.92-.33.04-.53-.31-.6-.95l-1.11-.89c-2.28-2.42-3.61-5.31-3.97-8.62Z"></path><path class="cls-1" d="M414.4,735.65c3.54,1.61,7.62,5.18,12.25,10.72,4.63,5.51,5.06,12.52,1.31,20.98-2.74,5.68-5.65,12.69-8.75,21.08-3.1,8.39-6.12,17.47-9.09,27.17-2.07,5.6-3.77,11.35-5.14,17.18-1.37,5.86-2.75,11.54-4.17,17.07-4.44,20.6-5.61,40.36-3.53,59.23,2.08,18.9,8.05,33.51,17.91,43.81,1.54,1.86,2.97,4.06,4.24,6.6,1.29,2.53.34,4.63-2.82,6.33-3.83,1.77-8.47,3.79-13.92,6.08-5.46,2.26-11.65,3.96-18.56,5.05-6.93,1.1-14.44,1.44-22.54.98-8.1-.46-16.37-2.56-24.85-6.32-3.54-1.61-5.78-3.72-6.73-6.29-.94-2.57-1.83-4.5-2.65-5.76-2.34-9.14-3.74-23.39-4.21-42.81-.48-19.39,3.04-43.94,10.5-73.6,7.84-32.4,15.88-58.25,24.15-77.62,8.26-19.37,12.98-29.77,14.17-31.26,2.72-5.67,7.48-8.19,14.25-7.62,6.76.61,11.55,1.43,14.35,2.44,1.39.52,3.16,1.19,5.25,1.94,2.1.78,4.94,2.31,8.55,4.62ZM495.8,634.1c4.78,6.84,4.04,13.8-2.23,20.88-6.27,7.05-14.55,14.16-24.83,21.35-10.28,7.15-20.58,14-30.94,20.51-10.35,6.51-16.62,12.24-18.75,17.14-1.19,1.48-2.43,2.3-3.75,2.44-1.34.15-3.84.27-7.5.34-3.69.07-8.33-.92-13.92-3.01-5.6-2.05-9.99-5.26-13.14-9.61-3.09-3.68-5.28-8.32-6.55-13.9-1.29-5.54.2-13.26,4.48-23.13,4.81-11.25,12.65-20.68,23.56-28.24,10.9-7.59,22.38-12.88,34.47-15.9,12.08-2.99,23.59-3.58,34.52-1.78,10.93,1.81,19.13,6.12,24.58,12.89Z"></path><path class="cls-1" d="M663.06,818.93c-5.17,7.85-9.99,14.27-14.47,19.28-4.48,5.01-9.42,8.96-14.8,11.83-5.38,2.83-11.69,5-18.91,6.44-7.23,1.44-16.14,2.73-26.73,3.9,4.09,31.09,3.19,60.88-2.73,89.36-5.92,28.51-14.82,52.79-26.69,72.9-11.88,20.07-26.22,34.58-43.01,43.46-16.8,8.91-34.05,9.28-51.69,1.18-12.09-6.07-20.62-16.71-25.66-31.91-5.02-15.2-7.35-33.25-6.97-54.08-1.51-26-.19-52.03,3.98-78.16,4.15-26.13,9.2-50.33,15.14-72.64,5.93-22.27,11.99-41.8,18.19-58.57,6.21-16.81,10.9-29.02,14.07-36.77-3.47-.97-6.55-1.46-9.22-1.5-2.69-.04-5.76-.53-9.22-1.5-59.71-12.19-108.23-18.76-145.55-19.68-37.34-.92-64.91-.07-82.74,2.57-11.27,1.24-16.43-.03-15.51-3.82.93-3.79,3.19-7.57,6.8-11.34,10.41-9.19,24.45-18.79,42.11-28.78,17.69-10,38.24-15.27,61.65-15.85,16.73-.49,32.47.97,47.26,4.34,14.81,3.4,29.34,7.52,43.63,12.33,14.27,4.78,27.91,9.82,40.91,15.09,12.99,5.29,26.07,9.9,39.25,13.79,1.1-2.12,5.08-8.76,11.9-19.92,6.82-11.13,15.7-23.35,26.66-36.66,10.94-13.27,23.43-26.23,37.49-38.83,14.02-12.63,29.16-21.48,45.35-26.65,10.31-3.81,21.4-5.18,33.26-4.16,11.85,1.06,22.49,7.75,31.9,20.13,7.86,10.56,11.54,22.56,11.01,36.01-.52,13.51-4.26,26.82-11.19,39.99-6.95,13.17-16.52,25.13-28.75,35.87-12.24,10.75-26.16,18.33-41.78,22.72-22.76,6.53-46.55,9.83-71.36,9.86l-2.33,6.31c-1.12,2.12-2.16,4.75-3.15,7.9-1.01,3.12-1.98,6.42-2.94,9.87l-1,.11.11,1c-5.62,16.07-11.73,38.17-18.34,66.42-6.62,28.25-10.76,62.24-12.41,102-.3,3.38-.44,6.74-.39,10.09.02,3.38-.1,6.74-.39,10.12-.09,11.4.59,20.72,2.07,27.96,1.45,7.21,4.3,11.59,8.49,13.13,6.33,2.65,12.93-1.42,19.78-12.22,6.85-10.83,12.69-24.89,17.49-42.19.96-3.45,1.74-7.07,2.32-10.82.6-3.75,1.37-7.37,2.34-10.82,3.1-20.49,3.65-39.92,1.61-58.4-10.96-2.02-18.69-6.54-23.12-13.51-4.47-7-6.66-14.71-6.57-23.11.07-8.39,1.74-16.13,4.99-23.18,3.25-7.05,6.79-11.5,10.62-13.27,5.08-2.56,9.63-2.38,13.63.53,4.01,2.94,7.64,6.87,10.88,11.88,3.3,5.69,6.36,12.04,9.15,19.11.95,2.6,1.55,5.05,1.81,7.36.26,2.34.83,4.45,1.71,6.35,2.71.38,5.57.4,8.56.07,2.97-.33,6.15-.34,9.55-.04,8.62-.95,15.36-2.21,20.22-3.76,4.87-1.52,8.85-3.31,11.99-5.34,3.13-2,5.88-4.49,8.24-7.45,2.35-2.93,5.34-6.27,8.95-10.05,1.84-1.52,4.18-3.13,7.03-4.8,2.83-1.63,5.02-1.54,6.57.29,2.28,2.45,2.95,5.57,2.03,9.33-.93,3.82-1.94,6.76-3.04,8.9ZM651.55,622.96c-1.63-2.49-4.72-4.67-9.27-6.5-4.58-1.86-10.8-.5-18.69,4.05-7.88,4.58-17.14,13.31-27.79,26.22-10.66,12.91-22.51,33.16-35.58,60.76l9.94-1.09c19.15-2.75,34.33-8.14,45.54-16.07,11.2-7.93,19.66-16.26,25.43-24.94,5.74-8.68,9.17-17.1,10.3-25.27,1.11-8.2,1.14-13.88.12-17.15Z"></path><path class="cls-1" d="M840.27,792.38c4.34,2.87,4.26,8.25-.24,16.12-4.43,8.53-11.97,20.79-22.63,36.7-10.67,15.95-23.71,31.3-39.19,46.08-15.48,14.79-32.78,26.77-51.89,35.9-19.12,9.14-39,11.48-59.61,7.06-19.21-3.9-32.62-12.99-40.22-27.26-7.62-14.24-10.91-30.49-9.9-48.72,1-18.23,5.46-37.15,13.36-56.81,7.89-19.63,17.66-37.51,29.31-53.56,7.02-9.46,14.89-18.56,23.67-27.24,8.76-8.67,18.19-16.1,28.24-22.24,10.04-6.14,20.37-9.95,30.94-11.45,10.55-1.5,20.82.22,30.75,5.15,6.4,3.35,10.99,8.37,13.75,15.1,2.75,6.73,3.91,14.34,3.51,22.77-.42,8.43-2.3,17.2-5.66,26.27-3.37,9.12-7.57,17.94-12.67,26.58-3.91,7.13-7.97,12.95-12.16,17.43-2.36,2.93-4.43,5.52-6.2,7.72-1.77,2.22-4.24,4.18-7.4,5.85-11.58,10.67-23.33,18.17-35.26,22.49-11.94,4.36-21.79,7.62-29.61,9.8.87,14,4.56,23.14,11.09,27.46,6.51,4.32,14.55,5.8,24.13,4.4,9.57-1.39,20.18-5.42,31.87-12.08,11.67-6.66,22.75-14.08,33.28-22.28,10.49-8.22,19.94-16.78,28.36-25.76,8.39-9,14.59-16.72,18.57-23.2,1.18-1.45,2.91-2.47,5.19-3.09,2.29-.56,4.5-.31,6.63.81ZM680.75,805.93c-1.04,2.79-1.42,5.35-1.17,7.65.26,2.34-.14,4.9-1.17,7.68,5.61-3.97,10.38-7.68,14.37-11.13,3.98-3.48,7.44-7.02,10.4-10.73l6.2-7.72c6.48-8.08,10.5-14.24,12.05-18.43,3.82-7.79,6.66-15.66,8.47-23.57,1.8-7.91.84-13.7-2.92-17.31-2.35-3.09-5.84-2.86-10.49.66-4.63,3.52-9.24,8.91-13.83,16.11-4.58,7.23-8.98,15.91-13.21,26.12-4.25,10.2-7.15,20.41-8.71,30.66Z"></path><path class="cls-1" d="M918.07,749.57c2.42-2.26,5.03-6.08,7.8-11.42,2.76-5.31,5.15-11.13,7.15-17.37,1.98-6.27,3.02-12.06,3.1-17.45.07-5.38-1.06-9.62-3.41-12.71-3.76-3.61-8.61-2.09-14.59,4.62-5.97,6.71-11.69,15.72-17.14,27.04l.11,1-.89,1.11c-2.59,6.98-4.63,14.27-6.15,21.81-1.53,7.57-2.25,14.68-2.18,21.37.06,6.72,1.54,12.57,4.46,17.63,2.91,5.05,7.1,8.28,12.64,9.66,6.18,1.35,14.22,2.82,24.13,4.4,9.89,1.58,19.65,4.87,29.26,9.86,9.61,4.96,17.58,11.97,23.95,21.01,6.35,9.03,8.67,21,6.97,35.96-1.64,15.63-6.55,27.22-14.77,34.82-8.22,7.6-16.86,12.94-25.91,15.94-11,3.88-23.22,5.57-36.68,5.05-28.35-1.58-48.95-7.2-61.74-16.84-12.8-9.68-21.39-20.61-25.75-32.88-4.38-12.26-5.82-23.86-4.33-34.75,1.47-10.91,3-18.45,4.55-22.64.96-3.45,2.37-5.79,4.25-7.01,1.88-1.22,3.44-2.22,4.7-3.04,3.31-.36,6.55,1.64,9.72,5.96,3.01,9.07,9.75,17.04,20.25,23.93,10.48,6.89,21.82,12.37,34.01,16.4,12.18,4.03,23.48,6.13,33.91,6.31,10.4.21,16.98-2.52,19.72-8.19,2.72-5.67,1.35-10.56-4.13-14.65-5.47-4.07-12.09-7.73-19.81-10.9-9.14-3.66-19.91-7.2-32.36-10.53-19.82-3.16-33.64-9.87-41.46-20.06-7.84-10.22-12.01-20.66-12.51-31.33-.3-8.69,1.16-16.9,4.33-24.65.44-2.04,1.85-6.07,4.22-12.04,2.36-5.94,5.8-12.71,10.35-20.24,4.53-7.56,10.56-15.26,18.07-23.12,7.51-7.89,16.92-15.47,28.19-22.73,2.49-1.63,4.72-2.88,6.63-3.77,1.92-.86,3.83-1.74,5.74-2.63,8.9-4.33,17.89-6.67,26.9-6.99,9.02-.32,18.14,1.69,27.34,6.05,10.59,4.85,16.73,13.42,18.43,25.64,1.67,12.22.4,25.11-3.79,38.65-4.22,13.55-10.67,26.51-19.36,38.86-8.71,12.38-17.84,20.76-27.43,25.16-10.17,5.14-17.79,7.49-22.87,7.03-5.07-.42-8.42-1.9-10.04-4.42l-1.11-.89c-3.16-4.32-3.88-9.28-2.14-14.84,1.74-5.57,4.96-11.26,9.68-17.19Z"></path><path class="cls-1" d="M1166.55,557.19c-6.2,10.73-12.84,23.53-19.91,38.4-7.1,14.88-14.18,31.11-21.31,48.66-7.13,17.55-13.79,36.22-19.99,56.04-6.22,19.79-11.53,40-15.97,60.63-.52,1.41-.75,2.26-.72,2.57.04.36-.22,1.22-.73,2.6-1.4,5.53-3.62,17.35-6.66,35.47-3.04,18.12-3.6,35.77-1.7,53.01.81,7.31,2.64,13.47,5.56,18.52,2.91,5.05,4.61,9.9,5.12,14.51.44,3.97-.77,6.63-3.65,7.96-2.86,1.33-5.3,2.09-7.28,2.31-3.4-.3-8.32-.77-14.74-1.39-6.46-.64-13.06-2.77-19.84-6.38-6.77-3.58-12.9-8.96-18.37-16.06-5.47-7.11-8.95-17.29-10.42-30.58-1.46-13.23-1.25-26.67.6-40.3,1.85-13.62,3.91-25.24,6.21-34.89.36-2.74,2.42-11.51,6.16-26.35,3.72-14.84,8.18-32.26,13.36-52.3,5.18-20.01,11.18-41.49,18.08-64.36,6.86-22.9,14.25-44.16,22.14-63.83-19.22,2.12-38.2,6.39-56.95,12.82-18.75,6.43-38.24,12.1-58.5,17.01-19.67,4.16-36.24,5.84-49.77,4.96-13.5-.85-24.35-3.49-32.57-7.96-8.2-4.47-14.34-10-18.43-16.61-4.09-6.58-6.53-13.53-7.33-20.81-.44-3.97,0-10.72,1.28-20.29,1.32-9.51,4.93-14.61,10.91-15.27,1.99-.22,5.64,1.04,10.99,3.83,5.33,2.76,13.38,5.74,24.12,8.89,10.76,3.21,24.95,5.67,42.58,7.41,17.63,1.74,39.73,1.49,66.32-.77,14-.87,22.97-1.55,26.96-1.99,3.97-.44,7.1-.94,9.38-1.53,2.28-.59,6.08-1.16,11.39-1.75,5.29-.58,16.59-1.49,33.91-2.75,7.22-13.51,13.82-23.66,19.8-30.34,5.97-6.71,16.92-10.92,32.83-12.68-1.34.15,0,0,3.97-.44,3.97-.44,8.88.04,14.74,1.39,5.85,1.38,11.36,4.12,16.51,8.25,5.14,4.13,8.53,10.48,10.14,19,.29,2.67-1.33,6.2-4.87,10.61,6.61-.73,15.49-1.03,26.57-.9,11.07.13,21.94,1.42,32.63,3.93,10.67,2.54,20.16,6.5,28.48,11.97,8.31,5.47,13.03,13.15,14.12,23.1,1.24,11.26-1.59,19.12-8.47,23.57-6.9,4.44-12.6,7.59-17.08,9.44-3.32.37-5.46-.75-6.4-3.32-1.4-6.57-5.55-12.32-12.47-17.27-6.93-4.92-15.06-8.72-24.39-11.38-9.35-2.65-19.11-4.44-29.27-5.34-10.15-.88-19.18-.56-27.07.99Z"></path><path class="cls-1" d="M1310.94,634.85c2.71.38,7.11,2.07,13.14,5.09,6.03,3.02,9.01,7.24,8.94,12.59,1.53,13.93.28,31.51-3.76,52.74-4.04,21.27-9.87,42.85-17.5,64.82-7.65,21.97-16.77,42.78-27.35,62.41-10.58,19.62-21.96,35.12-34.12,46.51l-.99.11,30.83-3.4c1.32-.15,2.82-.16,4.52.02,1.69.12,3.19.14,4.53,0,9.43.31,19.41,2.56,29.94,6.77,10.52,4.18,17.87,13.11,22.06,26.74,5.64,20.84,5.36,39.48-.88,55.96-6.23,16.44-12.61,28.69-19.08,36.8-10.61,13.24-23.87,25.42-39.74,36.59-15.88,11.12-35.02,18.6-57.4,22.42-24.98,4.75-44.36,2.37-58.15-7.17-13.8-9.57-23.56-22.06-29.29-37.56-5.73-15.46-8.33-31.27-7.74-47.42.57-16.18,2.76-28.16,6.6-35.95-9.43-.31-24.28,1.81-44.57,6.42-20.29,4.57-43.77,13.7-70.44,27.38-6.32,3.37-13,6.78-20,10.25-6.34,3.37-13.63,7.18-21.89,11.47-8.24,4.25-16.75,9.22-25.52,14.88-5.6,3.96-13.91,9.24-24.93,15.83-11.01,6.59-23.5,13.49-37.47,20.74-13.95,7.22-28.83,13.74-44.64,19.5-15.79,5.76-31.31,9.5-46.57,11.18-32.39,4.21-56.12-1.07-71.18-15.84-15.03-14.77-21.9-34.32-20.54-58.6.52-1.41,1.6-3.71,3.26-6.9,1.66-3.19,4.96-3.74,9.88-1.58,4.19,1.53,10.09,3.22,17.67,5.09,7.59,1.84,17.07,2.63,28.44,2.39,11.4-.24,25.31-1.77,41.76-4.6,16.46-2.83,35.37-7.77,56.73-14.79,25.27-8.16,47.04-15.93,65.34-23.32,18.32-7.39,36.18-14.21,53.6-20.49,17.41-6.28,35.56-12.15,54.42-17.57,18.86-5.42,41.44-10.58,67.73-15.51,10.52-1.83,20.17-2.56,28.93-2.17,7.44.53,14.29,1.77,20.55,3.79,6.25,1.98,9.09,6.37,8.49,13.13.06,6.72-1.01,15.22-3.22,25.54-2.24,10.29-2.32,20.03-.31,29.21,2.02,9.17,7.84,16.39,17.49,21.72,9.64,5.29,26.06,6.68,49.27,4.12,11.18-1.91,22.15-5.79,32.92-11.67,8.83-5,18.14-11.89,27.91-20.67,9.75-8.81,18.44-21.35,26.04-37.6.44-2.04.56-4.09.35-6.06-.44-4.01-2.36-6.13-5.74-6.43-2.73-.38-9.24-.15-19.55.65-10.32.8-21.29,3.17-32.92,7.16-11.65,3.96-22.13,9.29-31.45,16.02-9.33,6.74-14.36,15.83-15.11,27.34-.45,2.05-1.29,3.49-2.54,4.3-1.28.79-2.27.89-2.99.33-5.46-.75-12.1-3.18-19.93-7.36-7.86-4.17-12.14-12.6-12.86-25.27-.06-18.79,12.41-33.55,37.39-44.35l-1,.11c-6.78-.6-10.37-2.88-10.82-6.88-.22-1.97.56-4.09,2.33-6.28,1.17-1.48,2.38-2.63,3.65-3.41,2.49-1.63,5.52-4.66,9.06-9.07,1.77-2.19,3.35-4.55,4.76-7.07,1.38-2.49,2.63-4.8,3.75-6.95,3.99-6.46,7.66-14.23,11.02-23.32,3.36-9.09,6.25-17.82,8.7-26.14.96-3.45,2.04-7.26,3.27-11.42,1.2-4.16,2.26-8.3,3.16-12.42-7.47,17.59-15.55,34.08-24.25,49.44-8.7,15.39-18.21,28.02-28.53,37.88-4.8,5.23-9.13,8.38-13.04,9.48-3.75,2.44-6.97,3.78-9.61,4.07-24.98,4.78-43.33-1.92-55.05-20.1-11.72-18.15-14.04-46.76-6.93-85.78.44-2.04.72-4.1.83-6.11.11-2.04.42-3.73.94-5.14.58-.74.78-2.11.56-4.09,7.82-32.4,16.04-58.27,24.65-77.68,8.58-19.4,13.15-29.79,13.67-31.2,2.72-5.67,7.65-8.21,14.75-7.68,7.1.57,11.72,1.41,13.85,2.5,1.39.52,3.31,1.17,5.75,1.88,2.42.75,5.44,2.26,9.06,4.56,2.86,1.68,6.62,5.29,11.25,10.83,4.63,5.51,5.06,12.52,1.31,20.98-2.74,5.68-5.65,12.69-8.75,21.08-3.1,8.39-6.14,17.47-9.09,27.17-.97,3.48-1.94,6.76-2.94,9.87-1,3.15-1.98,6.45-2.93,9.9l.22,1.97c-.97,3.48-1.76,8.42-2.39,14.85-.64,6.46-.95,12.88-.91,19.23.03,6.38.98,11.96,2.86,16.79,1.87,4.83,5.15,7.32,9.88,7.48,1.32-.15,2.6-.62,3.86-1.44,4.41-2.51,9.52-7.93,15.31-16.27,5.78-8.34,11.9-18.26,18.36-29.69,6.45-11.46,12.64-23.69,18.58-36.78,5.95-13.06,10.93-25.5,15.01-37.37.58-.74.84-1.44.77-2.11-.07-.64.15-1.68.67-3.08,1.54-10.24,2.51-19.72,2.89-28.51,1.62-9.54,5.83-15.54,12.61-17.97,6.78-2.41,11.82-3.82,15.14-4.19,4.05.23,7.26.55,9.67.93,2.38.41,4.27.88,5.68,1.4Z"></path><path class="cls-1" d="M1415,730.04c-.52,1.41-.5,3.1.06,5.03.54,1.97.56,3.65.05,5.03-1.33,6.2-2.48,14.03-3.44,23.53-.98,9.51-1.26,19.24-.81,29.26.43,10.03,1.69,19.78,3.73,29.28,2.06,9.51,5.44,17.33,10.14,23.51,1.61,2.52,1.64,5.87.1,10.06-1.11,2.15-2.63,3.48-4.59,4.04-1.95.55-3.59.89-4.91,1.03-2.73-.38-6.63-.77-11.71-1.23-5.08-.42-10.43-1.71-16.01-3.76-5.6-2.05-11.3-5.11-17.1-9.17-5.82-4.06-10.51-9.93-14.02-17.59-2.72-6.4-4.89-13.86-6.5-22.44-1.61-8.51-2.58-17.31-2.9-26.34-.33-9.02-.11-17.77.64-26.24.73-8.46,1.43-15.76,2.11-21.85.36-2.74,1.52-10.58,3.46-23.54,1.92-12.96,4.55-28.51,7.94-46.66,3.36-18.15,7.39-37.88,12.09-59.19,4.7-21.31,10.16-41.72,16.4-61.2,6.24-19.45,12.9-36.61,20-51.49,7.07-14.87,14.96-25.45,23.66-31.78-.07-.67,1.14-1.81,3.64-3.44,2.57-.93,5.48-1.92,8.73-2.96,3.23-1.03,7.51-1.84,12.82-2.43,1.32-.15,3.16-.16,5.51-.12,2.36.11,5.22.28,8.61.56,2.81,1.07,8.42,3.28,16.85,6.71,8.42,3.43,13.87,10.39,16.39,20.83.29,2.67-.77,5.46-3.11,8.39-.59.74-1.32,1.68-2.2,2.76-.89,1.11-1.93,2.42-3.1,3.87-3.1,2.37-8.22,10.64-15.37,24.85-7.17,14.21-14.95,31.99-23.31,53.36-8.37,21.41-16.63,45.47-24.76,72.16-8.12,26.75-14.01,54.06-17.64,81.97-.52,1.41-.75,2.26-.72,2.57.04.36-.22,1.22-.73,2.6Z"></path><path class="cls-1" d="M1654.5,702.67c4.34,2.87,4.26,8.25-.24,16.12-4.43,8.53-11.97,20.79-22.63,36.7-10.67,15.95-23.71,31.3-39.19,46.08-15.48,14.79-32.78,26.77-51.89,35.9-19.12,9.14-39,11.48-59.61,7.06-19.21-3.9-32.62-12.99-40.22-27.26-7.62-14.24-10.91-30.49-9.9-48.72,1-18.23,5.46-37.15,13.36-56.81,7.89-19.63,17.66-37.51,29.31-53.56,7.02-9.46,14.89-18.56,23.67-27.24,8.76-8.67,18.19-16.1,28.24-22.24,10.04-6.14,20.37-9.95,30.94-11.45,10.55-1.5,20.82.22,30.75,5.15,6.4,3.35,10.99,8.37,13.75,15.1,2.75,6.73,3.91,14.34,3.51,22.77-.42,8.43-2.3,17.2-5.66,26.27-3.37,9.12-7.57,17.94-12.67,26.58-3.91,7.13-7.97,12.95-12.16,17.43-2.36,2.93-4.43,5.52-6.2,7.72-1.77,2.22-4.24,4.18-7.4,5.85-11.58,10.67-23.33,18.17-35.26,22.49-11.94,4.36-21.79,7.62-29.61,9.8.87,14,4.56,23.14,11.09,27.46,6.51,4.32,14.55,5.8,24.13,4.4,9.57-1.39,20.18-5.42,31.87-12.08,11.67-6.66,22.75-14.08,33.28-22.28,10.49-8.22,19.94-16.78,28.36-25.76,8.39-9,14.59-16.72,18.57-23.2,1.18-1.45,2.91-2.47,5.19-3.09,2.29-.56,4.5-.31,6.63.81ZM1494.98,716.23c-1.04,2.79-1.42,5.35-1.17,7.65.26,2.34-.14,4.9-1.17,7.68,5.61-3.97,10.38-7.68,14.37-11.13,3.98-3.48,7.44-7.02,10.4-10.73l6.2-7.72c6.48-8.08,10.5-14.24,12.05-18.43,3.82-7.79,6.66-15.66,8.47-23.57,1.8-7.91.84-13.7-2.92-17.31-2.35-3.09-5.84-2.86-10.49.66-4.63,3.52-9.24,8.91-13.83,16.11-4.58,7.23-8.98,15.91-13.21,26.12-4.25,10.2-7.15,20.41-8.71,30.66Z"></path><path class="cls-1" d="M1662.54,839.64c1.55-4.19,4.05-12.02,7.49-23.46,3.42-11.46,4.89-22.53,4.39-33.19-.29-2.64.56-4.09,2.55-4.3,1.17-1.48,3.33-3.07,6.51-4.77,3.18-1.67,7.4-2.81,12.71-3.4,5.9-1.33,11.31-.91,16.24,1.22,4.2,1.56,8.22,4.62,12.09,9.23,3.86,4.61,6.67,11.86,8.43,21.73,1.38,12.56-1.97,23.19-10.09,31.79-8.1,8.6-17.35,14.66-27.68,18.13-10.35,3.5-19.15,4.29-26.4,2.42-7.24-1.87-9.33-7.02-6.23-15.41Z"></path><path class="cls-1" d="M732.12,101.11c1.55-4.19,4.05-12.02,7.49-23.46,3.42-11.46,4.89-22.53,4.39-33.19-.29-2.64.56-4.09,2.55-4.3,1.17-1.48,3.33-3.07,6.51-4.77,3.18-1.67,7.4-2.81,12.71-3.4,5.9-1.33,11.31-.91,16.24,1.22,4.2,1.56,8.22,4.62,12.09,9.23,3.86,4.61,6.67,11.86,8.43,21.73,1.38,12.56-1.97,23.19-10.09,31.79-8.1,8.6-17.35,14.66-27.68,18.13-10.35,3.5-19.15,4.29-26.4,2.42-7.24-1.87-9.33-7.02-6.23-15.41Z"></path></g></g></g></svg>